<svg width="94" height="69" viewBox="0 0 94 69" fill="none" xmlns="http://www.w3.org/2000/svg">
<path d="M63.1922 63.192C62.2731 60.3126 54.2825 36.5318 57.3459 36.0911C60.8609 35.5854 65.2669 44.5786 66.4985 46.9651C68.6582 51.1499 68.8536 57.5005 68.8798 50.3194C68.9081 42.5586 73.8229 37.7771 79.992 34.0073C83.3203 31.9734 85.902 31.278 85.7164 36.1627C85.356 45.6521 72.4789 60.2122 66.4985 66.6886" stroke="black" stroke-width="3" stroke-linecap="round"/>
<path d="M30.7078 54.9262C25.2923 50.9411 -9.04037 11.6457 5.608 5.51847C13.684 2.14042 23.2975 19.8885 26.2921 24.6813C29.7968 30.2906 30.7325 43.1944 29.081 30.6841C27.8979 21.7226 27.1533 8.03437 36.8665 3.2097C44.3183 -0.491688 47.3308 4.85477 47.441 11.7522C47.6869 27.1433 45.1202 40.6053 38.1448 54.4645C36.9385 56.8612 32.4617 61.3277 36.9827 59.082" stroke="black" stroke-width="3" stroke-linecap="round"/>
</svg>
