<svg width="36" height="35" viewBox="0 0 36 35" fill="none" xmlns="http://www.w3.org/2000/svg">
<path d="M12.63 17.8063C12.7702 17.9415 12.9364 18.0484 13.1191 18.121C13.3019 18.1936 13.4976 18.2304 13.695 18.2292C13.8924 18.2304 14.0881 18.1936 14.2709 18.121C14.4536 18.0484 14.6198 17.9415 14.76 17.8063L17.01 15.6188C17.1506 15.4833 17.2622 15.322 17.3383 15.1443C17.4145 14.9665 17.4537 14.7759 17.4537 14.5834C17.4537 14.3909 17.4145 14.2003 17.3383 14.0226C17.2622 13.8449 17.1506 13.6836 17.01 13.548L14.76 11.3605C14.6201 11.2245 14.4541 11.1167 14.2714 11.0431C14.0886 10.9695 13.8928 10.9316 13.695 10.9316C13.4972 10.9316 13.3014 10.9695 13.1186 11.0431C12.9359 11.1167 12.7699 11.2245 12.63 11.3605C12.4901 11.4965 12.3792 11.6579 12.3035 11.8356C12.2278 12.0132 12.1889 12.2036 12.1889 12.3959C12.1889 12.5882 12.2278 12.7786 12.3035 12.9563C12.3792 13.1339 12.4901 13.2954 12.63 13.4313L13.815 14.5834L12.63 15.7355C12.4894 15.8711 12.3778 16.0324 12.3017 16.2101C12.2255 16.3878 12.1863 16.5784 12.1863 16.7709C12.1863 16.9634 12.2255 17.154 12.3017 17.3318C12.3778 17.5095 12.4894 17.6708 12.63 17.8063ZM21.54 20.723C20.5373 21.509 19.288 21.9376 18 21.9376C16.712 21.9376 15.4627 21.509 14.46 20.723C14.1537 20.4755 13.7588 20.3564 13.3621 20.3919C12.9655 20.4275 12.5996 20.6148 12.345 20.9126C12.0904 21.2104 11.9679 21.5944 12.0045 21.98C12.041 22.3656 12.2337 22.7213 12.54 22.9688C14.072 24.2122 16.0044 24.8933 18 24.8933C19.9957 24.8933 21.928 24.2122 23.46 22.9688C23.7663 22.7213 23.959 22.3656 23.9955 21.98C24.0321 21.5944 23.9096 21.2104 23.655 20.9126C23.5289 20.7651 23.3742 20.6432 23.1997 20.5539C23.0252 20.4646 22.8343 20.4095 22.6379 20.3919C22.2413 20.3564 21.8463 20.4755 21.54 20.723ZM22.5 13.1251C22.2033 13.1251 21.9133 13.2106 21.6667 13.3709C21.42 13.5311 21.2277 13.7589 21.1142 14.0253C21.0007 14.2918 20.971 14.585 21.0288 14.8679C21.0867 15.1508 21.2296 15.4107 21.4393 15.6146C21.6491 15.8186 21.9164 15.9575 22.2074 16.0137C22.4983 16.07 22.7999 16.0411 23.074 15.9307C23.3481 15.8204 23.5824 15.6334 23.7472 15.3936C23.912 15.1538 24 14.8718 24 14.5834C24 14.1966 23.842 13.8257 23.5607 13.5522C23.2794 13.2787 22.8978 13.1251 22.5 13.1251ZM18 2.91675C15.0333 2.91675 12.1332 3.77205 9.66645 5.37448C7.19972 6.97692 5.27713 9.25453 4.14181 11.9193C3.0065 14.584 2.70945 17.5163 3.28823 20.3451C3.86701 23.174 5.29562 25.7725 7.39341 27.8121C9.49119 29.8516 12.1639 31.2405 15.0737 31.8032C17.9834 32.3659 20.9994 32.0771 23.7403 30.9733C26.4812 29.8696 28.8238 28.0004 30.4721 25.6021C32.1203 23.2039 33 20.3844 33 17.5001C33 15.585 32.612 13.6886 31.8582 11.9193C31.1044 10.15 29.9995 8.5423 28.6066 7.18811C27.2137 5.83392 25.5601 4.75972 23.7403 4.02684C21.9204 3.29396 19.9698 2.91675 18 2.91675ZM18 29.1668C15.6266 29.1668 13.3066 28.4825 11.3332 27.2006C9.35977 25.9186 7.8217 24.0965 6.91345 21.9647C6.0052 19.8329 5.76756 17.4871 6.23058 15.224C6.69361 12.9609 7.8365 10.8821 9.51473 9.2505C11.193 7.61889 13.3312 6.50775 15.6589 6.05759C17.9867 5.60743 20.3995 5.83847 22.5922 6.72149C24.7849 7.60451 26.6591 9.09986 27.9776 11.0184C29.2962 12.937 30 15.1926 30 17.5001C30 20.5943 28.7357 23.5617 26.4853 25.7497C24.2349 27.9376 21.1826 29.1667 18 29.1668Z" fill="#1B1B1B"/>
</svg>
