<svg xmlns="http://www.w3.org/2000/svg" xmlns:xlink="http://www.w3.org/1999/xlink" viewBox="0,0,256,256" width="24px" height="24px" fill-rule="nonzero"><g fill="#ffffff" fill-rule="nonzero" stroke="none" stroke-width="1" stroke-linecap="butt" stroke-linejoin="miter" stroke-miterlimit="10" stroke-dasharray="" stroke-dashoffset="0" font-family="none" font-weight="none" font-size="none" text-anchor="none" style="mix-blend-mode: normal"><g transform="scale(10.66667,10.66667)"><path d="M4,2c-1.10156,0 -2,0.89844 -2,2v16c0,1.10156 0.89844,2 2,2h16c1.10156,0 2,-0.89844 2,-2v-16c0,-1.10156 -0.89844,-2 -2,-2zM8,6h3.875c1.19922,0 4.125,0.04688 4.125,2.53125c0,1.48047 -1.00781,2.12109 -1.46875,2.3125v0.0625c1.1875,0 2.46875,1.25 2.46875,2.625c0,1.48047 -0.61719,3.46875 -4.59375,3.46875h-4.40625zM11,8v2c0,0 0.91016,0 1.0625,0c0.85938,0 0.9375,-0.75781 0.9375,-0.9375c0,-0.11328 -0.01562,-1.0625 -0.96875,-1.0625zM11,12v3c0,0 1.25,-0.03125 1.5,-0.03125c1.29688,0 1.5,-1.09766 1.5,-1.5c0,-0.60937 -0.34375,-1.46875 -1.46875,-1.46875c-0.26953,0 -1.53125,0 -1.53125,0z"></path></g></g></svg>