<svg width="36" height="35" viewBox="0 0 36 35" fill="none" xmlns="http://www.w3.org/2000/svg">
<path d="M17.9999 31.7188C18.2769 31.718 18.5483 31.6426 18.7839 31.501C19.0196 31.3595 19.2103 31.1572 19.3349 30.9167L23.9249 21.9917H29.9249C31.1502 21.9917 32.3253 21.5185 33.1918 20.6761C34.0582 19.8338 34.5449 18.6913 34.5449 17.5001C34.5449 16.3088 34.0582 15.1663 33.1918 14.324C32.3253 13.4816 31.1502 13.0084 29.9249 13.0084H23.9249L19.3349 4.08338C19.2103 3.84288 19.0196 3.64064 18.7839 3.49906C18.5483 3.35749 18.2769 3.28212 17.9999 3.2813H13.0049C12.7606 3.27932 12.5194 3.33542 12.3024 3.44471C12.0854 3.55399 11.8992 3.71317 11.7599 3.90838C11.6231 4.10249 11.5367 4.32589 11.508 4.55952C11.4792 4.79315 11.5091 5.03006 11.5949 5.25005L14.5949 13.0084H8.99992L8.09992 10.3542C7.99929 10.0646 7.80758 9.81298 7.55187 9.63503C7.29616 9.45708 6.98939 9.36176 6.67492 9.36255H2.99992C2.80146 9.36335 2.60514 9.40243 2.42233 9.47753C2.23951 9.55263 2.07385 9.66226 1.93493 9.80005C1.65781 10.0717 1.50158 10.4383 1.49992 10.8209V24.1938C1.49992 24.5806 1.65796 24.9515 1.93926 25.225C2.22057 25.4985 2.6021 25.6521 2.99992 25.6521H6.74992C7.06439 25.6529 7.37116 25.5576 7.62687 25.3797C7.88258 25.2017 8.0743 24.9501 8.17492 24.6605L8.99992 21.9917H14.5799L11.5799 29.75C11.4941 29.97 11.4642 30.207 11.493 30.4406C11.5217 30.6742 11.6081 30.8976 11.7449 31.0917C11.8842 31.2869 12.0704 31.4461 12.2874 31.5554C12.5044 31.6647 12.7456 31.7208 12.9899 31.7188H17.9999ZM18.1499 21.0584C18.2384 20.8364 18.2696 20.5967 18.2408 20.3603C18.2121 20.1239 18.1242 19.8979 17.9849 19.7021C17.8471 19.509 17.6632 19.351 17.4491 19.2419C17.2349 19.1327 16.9968 19.0754 16.7549 19.0751H7.99492C7.67861 19.0753 7.37046 19.1727 7.11453 19.3534C6.8586 19.5342 6.66798 19.7889 6.56992 20.0813L5.66992 22.7209H4.49992V12.2646H5.66992L6.56992 14.9042C6.66798 15.1966 6.8586 15.4514 7.11453 15.6321C7.37046 15.8128 7.67861 15.9102 7.99492 15.9105H16.7549C16.9968 15.9101 17.2349 15.8529 17.4491 15.7437C17.6632 15.6345 17.8471 15.4766 17.9849 15.2834C18.1242 15.0876 18.2121 14.8616 18.2408 14.6252C18.2696 14.3888 18.2384 14.1491 18.1499 13.9271L15.1499 6.18338H17.0699L21.6599 15.0938C21.7825 15.337 21.9723 15.5423 22.2081 15.6865C22.4439 15.8307 22.7163 15.9083 22.9949 15.9105H29.8799C30.3096 15.9105 30.7216 16.0764 31.0254 16.3718C31.3292 16.6671 31.4999 17.0678 31.4999 17.4855C31.4999 17.9032 31.3292 18.3038 31.0254 18.5992C30.7216 18.8945 30.3096 19.0605 29.8799 19.0605H22.9949C22.7163 19.0626 22.4439 19.1402 22.2081 19.2844C21.9723 19.4287 21.7825 19.6339 21.6599 19.8771L17.0699 28.7875H15.1649L18.1499 21.0584Z" fill="#1B1B1B"/>
</svg>
