<svg width="35" height="35" viewBox="0 0 35 35" fill="none" xmlns="http://www.w3.org/2000/svg">
<path d="M17.9372 17.8209C18.7153 17.1474 19.3394 16.3143 19.7672 15.3782C20.195 14.4422 20.4164 13.4251 20.4163 12.3959C20.4163 10.462 19.6481 8.60738 18.2807 7.23993C16.9132 5.87248 15.0585 5.10425 13.1247 5.10425C11.1908 5.10425 9.33614 5.87248 7.96869 7.23993C6.60123 8.60738 5.83301 10.462 5.83301 12.3959C5.833 13.4251 6.05439 14.4422 6.48215 15.3782C6.90991 16.3143 7.53404 17.1474 8.31217 17.8209C6.27071 18.7453 4.53869 20.2381 3.32319 22.1209C2.10769 24.0036 1.46015 26.1966 1.45801 28.4376C1.45801 28.8244 1.61165 29.1953 1.88514 29.4688C2.15863 29.7423 2.52957 29.8959 2.91634 29.8959C3.30312 29.8959 3.67405 29.7423 3.94754 29.4688C4.22103 29.1953 4.37467 28.8244 4.37467 28.4376C4.37467 26.1169 5.29655 23.8913 6.93749 22.2504C8.57843 20.6095 10.804 19.6876 13.1247 19.6876C15.4453 19.6876 17.6709 20.6095 19.3119 22.2504C20.9528 23.8913 21.8747 26.1169 21.8747 28.4376C21.8747 28.8244 22.0283 29.1953 22.3018 29.4688C22.5753 29.7423 22.9462 29.8959 23.333 29.8959C23.7198 29.8959 24.0907 29.7423 24.3642 29.4688C24.6377 29.1953 24.7913 28.8244 24.7913 28.4376C24.7892 26.1966 24.1417 24.0036 22.9262 22.1209C21.7107 20.2381 19.9786 18.7453 17.9372 17.8209ZM13.1247 16.7709C12.2594 16.7709 11.4135 16.5143 10.6941 16.0336C9.97459 15.5529 9.41383 14.8696 9.0827 14.0702C8.75157 13.2707 8.66493 12.3911 8.83374 11.5424C9.00255 10.6937 9.41923 9.91418 10.0311 9.30232C10.6429 8.69047 11.4225 8.27379 12.2712 8.10498C13.1198 7.93617 13.9995 8.02281 14.7989 8.35394C15.5983 8.68508 16.2816 9.24583 16.7624 9.96529C17.2431 10.6848 17.4997 11.5306 17.4997 12.3959C17.4997 13.5562 17.0387 14.669 16.2183 15.4895C15.3978 16.31 14.285 16.7709 13.1247 16.7709ZM27.3288 17.2376C28.2621 16.1866 28.8718 14.8883 29.0844 13.4989C29.297 12.1095 29.1035 10.6883 28.5272 9.40633C27.951 8.12435 27.0165 7.03624 25.8362 6.27299C24.6559 5.50974 23.2802 5.10387 21.8747 5.10425C21.4879 5.10425 21.117 5.25789 20.8435 5.53138C20.57 5.80487 20.4163 6.17581 20.4163 6.56258C20.4163 6.94936 20.57 7.32029 20.8435 7.59378C21.117 7.86727 21.4879 8.02091 21.8747 8.02091C23.035 8.02091 24.1478 8.48185 24.9683 9.30232C25.7887 10.1228 26.2497 11.2356 26.2497 12.3959C26.2476 13.1619 26.0445 13.9139 25.6606 14.5767C25.2767 15.2396 24.7255 15.79 24.0622 16.173C23.846 16.2977 23.6654 16.4758 23.5377 16.6903C23.41 16.9048 23.3396 17.1485 23.333 17.398C23.3269 17.6456 23.384 17.8906 23.4988 18.11C23.6136 18.3295 23.7824 18.516 23.9893 18.6522L24.558 19.0313L24.7476 19.1334C26.5055 19.9672 27.9885 21.2859 29.0219 22.9343C30.0554 24.5827 30.5963 26.4921 30.5809 28.4376C30.5809 28.8244 30.7346 29.1953 31.0081 29.4688C31.2815 29.7423 31.6525 29.8959 32.0393 29.8959C32.426 29.8959 32.797 29.7423 33.0705 29.4688C33.3439 29.1953 33.4976 28.8244 33.4976 28.4376C33.5095 26.1997 32.949 23.9959 31.8693 22.0356C30.7896 20.0753 29.2266 18.4237 27.3288 17.2376Z" fill="#1B1B1B"/>
</svg>
